<svg id="Layer_1" viewBox="0 0 128 128" xmlns="http://www.w3.org/2000/svg" width="300" height="300" version="1.1" xmlns:xlink="http://www.w3.org/1999/xlink" xmlns:svgjs="http://svgjs.dev/svgjs"><g width="100%" height="100%" transform="matrix(1,0,0,1,0,0)"><g stroke="#000" stroke-miterlimit="10" stroke-width="4"><path d="m1334-120s0-18 18-18 88 0 88 0 18 0 18 18v72s0 18-18 18-88 0-88 0-18 0-18-18z" fill="none" stroke-linecap="square" fill-opacity="1" stroke="#7a54dd" stroke-opacity="1" data-original-stroke-color="#000000ff" stroke-width="4" data-original-stroke-width="4"/><path d="m1442-128h-38v20l6 7c.9 1.3 1 2.3 1 4 0 4.3-2.7 8-7 8-3.4 0-7-3-8-6-1 3-4.6 6-8 6-4.3 0-7-3.7-7-8 0-1.7.1-2.7 1-4l6-7v-20h-38c-6 0-6 6-6 6v76c0 6 6 6 6 6h38v-20l-6-7c-.9-1.3-1-2.3-1-4 0-4.3 2.7-8 7-8 3.4 0 7 3 8 6 1-3 4.6-6 8-6 4.3 0 7 3.7 7 8 0 1.7-.1 2.7-1 4l-6 7v20h38c6 0 6-6 6-6v-76c0-6-6-6-6-6z" stroke-linecap="round" fill="#7a54dd" fill-opacity="1" data-original-color="#000000ff" stroke="#7a54dd" stroke-opacity="1" data-original-stroke-color="#000000ff" stroke-width="4" data-original-stroke-width="4"/></g><g stroke="#000" stroke-miterlimit="10" stroke-width="4"><path d="m1334-120s0-18 18-18 88 0 88 0 18 0 18 18v72s0 18-18 18-88 0-88 0-18 0-18-18z" fill="none" stroke-linecap="square" fill-opacity="1" stroke="#7a54dd" stroke-opacity="1" data-original-stroke-color="#000000ff" stroke-width="4" data-original-stroke-width="4"/><path d="m1442-128h-38v20l6 7c.9 1.3 1 2.3 1 4 0 4.3-2.7 8-7 8-3.4 0-7-3-8-6-1 3-4.6 6-8 6-4.3 0-7-3.7-7-8 0-1.7.1-2.7 1-4l6-7v-20h-38c-6 0-6 6-6 6v76c0 6 6 6 6 6h38v-20l-6-7c-.9-1.3-1-2.3-1-4 0-4.3 2.7-8 7-8 3.4 0 7 3 8 6 1-3 4.6-6 8-6 4.3 0 7 3.7 7 8 0 1.7-.1 2.7-1 4l-6 7v20h38c6 0 6-6 6-6v-76c0-6-6-6-6-6z" stroke-linecap="round" fill="#7a54dd" fill-opacity="1" data-original-color="#000000ff" stroke="#7a54dd" stroke-opacity="1" data-original-stroke-color="#000000ff" stroke-width="4" data-original-stroke-width="4"/></g><g><g><path d="m74 38.9v1.3l5.5 6.4s.1.1.1.1c1.3 1.8 1.4 3.4 1.4 5.2 0 5.7-3.9 10-9 10-3.1 0-6.1-1.8-8-4.1-1.9 2.3-4.9 4.1-8 4.1-5.1 0-9-4.3-9-10 0-1.8.1-3.4 1.4-5.2 0 0 .1-.1.1-.1l5.5-6.4v-1.3c-10.1 4-17 14-17 25.1s6.9 21 17 25.1v-1.3l-5.5-6.4s-.1-.1-.1-.1c-1.3-1.9-1.4-3.5-1.4-5.3 0-5.7 3.9-10 9-10 3.1 0 6.1 1.8 8 4.1 1.9-2.3 4.9-4.1 8-4.1 5.1 0 9 4.3 9 10 0 1.8-.1 3.4-1.4 5.2 0 0-.1.1-.1.1l-5.5 6.4v1.3c10.1-4 17-14 17-25.1 0-11-6.9-20.9-17-25z" fill="#7a54dd" fill-opacity="1" data-original-color="#000000ff" stroke="none" stroke-opacity="1"/><path d="m88 12c-9.1-3.1-17.1-6.6-24-10-6.9 3.4-14.9 6.9-24 10-11.8 4-22.6 6.5-32 8 0 0 6 106 56 106s56-106 56-106c-9.4-1.5-20.2-4-32-8zm-14 81.3v19.7h-4v-26c0-.5.2-.9.5-1.3l5.9-6.9c.5-.8.6-1.4.6-2.8 0-3-1.7-6-5-6-2.6 0-5.3 2.5-6.1 4.7-.3.8-1 1.3-1.9 1.3s-1.6-.5-1.9-1.3c-.8-2.2-3.5-4.7-6.1-4.7-3.3 0-5 3-5 6 0 1.4.1 2 .6 2.8l5.9 6.9c.3.4.5.8.5 1.3v26h-4v-19.7c-12.4-4.2-21-16-21-29.3s8.6-25.1 21-29.3v-16.7h4v23c0 .5-.2.9-.5 1.3l-5.9 6.9c-.5.8-.6 1.4-.6 2.8 0 3 1.7 6 5 6 2.6 0 5.3-2.5 6.1-4.7.3-.8 1-1.3 1.9-1.3s1.6.5 1.9 1.3c.8 2.2 3.5 4.7 6.1 4.7 3.3 0 5-3 5-6 0-1.4-.1-2-.6-2.8l-5.9-6.9c-.3-.4-.5-.8-.5-1.3v-23h4v16.7c12.4 4.2 21 16.1 21 29.3 0 13.3-8.6 25.1-21 29.3z" fill="#7a54dd" fill-opacity="1" data-original-color="#000000ff" stroke="none" stroke-opacity="1"/></g><g><path d="m64 2c6.9 3.4 14.9 6.9 24 10 11.8 4 22.6 6.5 32 8 0 0-6 106-56 106s-56-106-56-106c9.4-1.5 20.2-4 32-8 9.1-3.1 17.1-6.6 24-10z" style="stroke-linecap: round; stroke-linejoin: round; stroke-miterlimit: 10;" fill="none" fill-opacity="1" stroke="#7a54dd" stroke-opacity="1" data-original-stroke-color="#000000ff" stroke-width="4" data-original-stroke-width="4"/></g></g></g></svg>